<mxfile host="Electron" agent="Mozilla/5.0 (X11; Linux x86_64) AppleWebKit/537.36 (KHTML, like Gecko) draw.io/24.7.17 Chrome/128.0.6613.36 Electron/32.0.1 Safari/537.36" version="24.7.17">
  <diagram name="Page-1" id="03018318-947c-dd8e-b7a3-06fadd420f32">
    <mxGraphModel dx="1030" dy="580" grid="1" gridSize="10" guides="1" tooltips="1" connect="1" arrows="1" fold="1" page="0" pageScale="1" pageWidth="1100" pageHeight="850" background="none" math="0" shadow="0">
      <root>
        <mxCell id="0" />
        <mxCell id="1" parent="0" />
        <mxCell id="a_xUBQwBy6rDpvlgd22E-41" value="" style="group;opacity=50;" parent="1" vertex="1" connectable="0">
          <mxGeometry x="20" y="120" width="640" height="440" as="geometry" />
        </mxCell>
        <mxCell id="a_xUBQwBy6rDpvlgd22E-2" value="" style="rounded=0;whiteSpace=wrap;html=1;" parent="a_xUBQwBy6rDpvlgd22E-41" vertex="1">
          <mxGeometry width="640" height="440" as="geometry" />
        </mxCell>
        <mxCell id="a_xUBQwBy6rDpvlgd22E-4" value="" style="rounded=0;whiteSpace=wrap;html=1;" parent="a_xUBQwBy6rDpvlgd22E-41" vertex="1">
          <mxGeometry width="640" height="40" as="geometry" />
        </mxCell>
        <mxCell id="a_xUBQwBy6rDpvlgd22E-5" value="Logout" style="rounded=1;whiteSpace=wrap;html=1;" parent="a_xUBQwBy6rDpvlgd22E-41" vertex="1">
          <mxGeometry x="568.8888888888889" y="10" width="60.95238095238095" height="20" as="geometry" />
        </mxCell>
        <mxCell id="a_xUBQwBy6rDpvlgd22E-6" value="Behold VTT" style="text;html=1;align=center;verticalAlign=middle;whiteSpace=wrap;rounded=0;fontStyle=1" parent="a_xUBQwBy6rDpvlgd22E-41" vertex="1">
          <mxGeometry x="10.158730158730158" y="5" width="81.26984126984127" height="30" as="geometry" />
        </mxCell>
        <mxCell id="a_xUBQwBy6rDpvlgd22E-7" value="User Name" style="text;html=1;align=center;verticalAlign=middle;whiteSpace=wrap;rounded=0;" parent="a_xUBQwBy6rDpvlgd22E-41" vertex="1">
          <mxGeometry x="477.4603174603174" y="5" width="81.26984126984127" height="30" as="geometry" />
        </mxCell>
        <mxCell id="a_xUBQwBy6rDpvlgd22E-39" value="Game Name" style="text;html=1;align=center;verticalAlign=middle;whiteSpace=wrap;rounded=0;" parent="a_xUBQwBy6rDpvlgd22E-41" vertex="1">
          <mxGeometry x="314.9206349206349" y="5" width="81.26984126984127" height="30" as="geometry" />
        </mxCell>
        <mxCell id="a_xUBQwBy6rDpvlgd22E-40" value="Leave" style="rounded=1;whiteSpace=wrap;html=1;" parent="a_xUBQwBy6rDpvlgd22E-41" vertex="1">
          <mxGeometry x="406.3492063492063" y="10" width="60.95238095238095" height="20" as="geometry" />
        </mxCell>
        <mxCell id="iOlVBHZvp6bPq2AkOOY4-1" value="" style="rounded=0;whiteSpace=wrap;html=1;" vertex="1" parent="a_xUBQwBy6rDpvlgd22E-41">
          <mxGeometry x="460" y="40" width="180" height="400" as="geometry" />
        </mxCell>
        <mxCell id="iOlVBHZvp6bPq2AkOOY4-5" value="Game" style="rounded=1;whiteSpace=wrap;html=1;" vertex="1" parent="a_xUBQwBy6rDpvlgd22E-41">
          <mxGeometry x="460" y="40" width="53" height="20" as="geometry" />
        </mxCell>
        <mxCell id="iOlVBHZvp6bPq2AkOOY4-16" value="Assets" style="rounded=1;whiteSpace=wrap;html=1;" vertex="1" parent="a_xUBQwBy6rDpvlgd22E-41">
          <mxGeometry x="513" y="40" width="54.27" height="20" as="geometry" />
        </mxCell>
        <mxCell id="iOlVBHZvp6bPq2AkOOY4-17" value="Scene" style="rounded=1;whiteSpace=wrap;html=1;" vertex="1" parent="a_xUBQwBy6rDpvlgd22E-41">
          <mxGeometry x="567.27" y="40" width="51.11" height="20" as="geometry" />
        </mxCell>
        <mxCell id="iOlVBHZvp6bPq2AkOOY4-19" value="" style="rounded=0;whiteSpace=wrap;html=1;strokeColor=none;" vertex="1" parent="a_xUBQwBy6rDpvlgd22E-41">
          <mxGeometry x="461" y="57" width="51" height="10" as="geometry" />
        </mxCell>
        <mxCell id="iOlVBHZvp6bPq2AkOOY4-48" value="" style="verticalLabelPosition=bottom;shadow=0;dashed=0;align=center;html=1;verticalAlign=top;strokeWidth=1;shape=mxgraph.mockup.misc.map;strokeColor=none;opacity=20;" vertex="1" parent="a_xUBQwBy6rDpvlgd22E-41">
          <mxGeometry x="1" y="41" width="460" height="399" as="geometry" />
        </mxCell>
        <mxCell id="iOlVBHZvp6bPq2AkOOY4-47" value="" style="group" vertex="1" connectable="0" parent="a_xUBQwBy6rDpvlgd22E-41">
          <mxGeometry x="10" y="170" width="20" height="100" as="geometry" />
        </mxCell>
        <mxCell id="iOlVBHZvp6bPq2AkOOY4-42" value="T" style="rounded=1;whiteSpace=wrap;html=1;" vertex="1" parent="iOlVBHZvp6bPq2AkOOY4-47">
          <mxGeometry width="20" height="20" as="geometry" />
        </mxCell>
        <mxCell id="iOlVBHZvp6bPq2AkOOY4-43" value="O" style="rounded=1;whiteSpace=wrap;html=1;" vertex="1" parent="iOlVBHZvp6bPq2AkOOY4-47">
          <mxGeometry y="20" width="20" height="20" as="geometry" />
        </mxCell>
        <mxCell id="iOlVBHZvp6bPq2AkOOY4-44" value="O" style="rounded=1;whiteSpace=wrap;html=1;" vertex="1" parent="iOlVBHZvp6bPq2AkOOY4-47">
          <mxGeometry y="40" width="20" height="20" as="geometry" />
        </mxCell>
        <mxCell id="iOlVBHZvp6bPq2AkOOY4-45" value="L" style="rounded=1;whiteSpace=wrap;html=1;" vertex="1" parent="iOlVBHZvp6bPq2AkOOY4-47">
          <mxGeometry y="60" width="20" height="20" as="geometry" />
        </mxCell>
        <mxCell id="iOlVBHZvp6bPq2AkOOY4-46" value="S" style="rounded=1;whiteSpace=wrap;html=1;" vertex="1" parent="iOlVBHZvp6bPq2AkOOY4-47">
          <mxGeometry y="80" width="20" height="20" as="geometry" />
        </mxCell>
        <mxCell id="iOlVBHZvp6bPq2AkOOY4-49" value="Scene One" style="rounded=1;whiteSpace=wrap;html=1;" vertex="1" parent="a_xUBQwBy6rDpvlgd22E-41">
          <mxGeometry x="11.430000000000007" y="52.5" width="80" height="19" as="geometry" />
        </mxCell>
        <mxCell id="iOlVBHZvp6bPq2AkOOY4-71" value="Scene Two" style="rounded=1;whiteSpace=wrap;html=1;" vertex="1" parent="a_xUBQwBy6rDpvlgd22E-41">
          <mxGeometry x="100" y="52.5" width="80" height="19" as="geometry" />
        </mxCell>
        <mxCell id="iOlVBHZvp6bPq2AkOOY4-72" value="+" style="rounded=1;whiteSpace=wrap;html=1;" vertex="1" parent="a_xUBQwBy6rDpvlgd22E-41">
          <mxGeometry x="190" y="52.5" width="19" height="19" as="geometry" />
        </mxCell>
        <mxCell id="iOlVBHZvp6bPq2AkOOY4-74" value="" style="image;html=1;image=img/lib/clip_art/people/Security_Man_128x128.png;opacity=75;" vertex="1" parent="a_xUBQwBy6rDpvlgd22E-41">
          <mxGeometry x="190" y="190" width="31" height="30" as="geometry" />
        </mxCell>
        <mxCell id="iOlVBHZvp6bPq2AkOOY4-75" value="" style="image;html=1;image=img/lib/clip_art/people/Security_Woman_Black_128x128.png;opacity=75;" vertex="1" parent="a_xUBQwBy6rDpvlgd22E-41">
          <mxGeometry x="284.92" y="150" width="30" height="30" as="geometry" />
        </mxCell>
        <mxCell id="iOlVBHZvp6bPq2AkOOY4-76" value="" style="image;html=1;image=img/lib/clip_art/people/Telesales_Woman_128x128.png;opacity=75;" vertex="1" parent="a_xUBQwBy6rDpvlgd22E-41">
          <mxGeometry x="230" y="320" width="35" height="40" as="geometry" />
        </mxCell>
        <mxCell id="iOlVBHZvp6bPq2AkOOY4-77" value="Selected&lt;br&gt;Piece&lt;br&gt;Properties" style="rounded=0;whiteSpace=wrap;html=1;" vertex="1" parent="a_xUBQwBy6rDpvlgd22E-41">
          <mxGeometry x="360" y="330" width="89" height="100" as="geometry" />
        </mxCell>
        <mxCell id="iOlVBHZvp6bPq2AkOOY4-78" value="" style="ellipse;whiteSpace=wrap;html=1;aspect=fixed;fillColor=none;strokeColor=#00012B;strokeWidth=2;dashed=1;dashPattern=1 1;" vertex="1" parent="a_xUBQwBy6rDpvlgd22E-41">
          <mxGeometry x="284.92" y="150" width="30" height="30" as="geometry" />
        </mxCell>
        <mxCell id="iOlVBHZvp6bPq2AkOOY4-85" value="Name" style="text;html=1;align=left;verticalAlign=middle;whiteSpace=wrap;rounded=0;fontStyle=2" vertex="1" parent="a_xUBQwBy6rDpvlgd22E-41">
          <mxGeometry x="470" y="67" width="160" height="20" as="geometry" />
        </mxCell>
        <mxCell id="iOlVBHZvp6bPq2AkOOY4-86" value="Game Name" style="rounded=0;whiteSpace=wrap;html=1;align=left;fontColor=#666666;" vertex="1" parent="a_xUBQwBy6rDpvlgd22E-41">
          <mxGeometry x="470" y="87" width="160" height="23" as="geometry" />
        </mxCell>
        <mxCell id="iOlVBHZvp6bPq2AkOOY4-87" value="Description" style="text;html=1;align=left;verticalAlign=middle;whiteSpace=wrap;rounded=0;fontStyle=2" vertex="1" parent="a_xUBQwBy6rDpvlgd22E-41">
          <mxGeometry x="470" y="120" width="160" height="20" as="geometry" />
        </mxCell>
        <mxCell id="iOlVBHZvp6bPq2AkOOY4-88" value="Game description.&amp;nbsp; Lorem ipsum dolor sit amet, consectetur adipiscing elit, sed do eiusmod tempor incididunt ut labore et dolore magna aliqua." style="rounded=0;whiteSpace=wrap;html=1;align=left;fontColor=#666666;" vertex="1" parent="a_xUBQwBy6rDpvlgd22E-41">
          <mxGeometry x="470" y="140" width="160" height="90" as="geometry" />
        </mxCell>
        <mxCell id="iOlVBHZvp6bPq2AkOOY4-89" value="Players" style="text;html=1;align=left;verticalAlign=middle;whiteSpace=wrap;rounded=0;fontStyle=2" vertex="1" parent="a_xUBQwBy6rDpvlgd22E-41">
          <mxGeometry x="467.3" y="260" width="160" height="20" as="geometry" />
        </mxCell>
        <mxCell id="iOlVBHZvp6bPq2AkOOY4-90" value="Player One" style="text;html=1;align=left;verticalAlign=middle;whiteSpace=wrap;rounded=0;fontStyle=0" vertex="1" parent="a_xUBQwBy6rDpvlgd22E-41">
          <mxGeometry x="480" y="280" width="147.3" height="20" as="geometry" />
        </mxCell>
        <mxCell id="iOlVBHZvp6bPq2AkOOY4-91" value="" style="endArrow=none;html=1;rounded=0;entryX=0.995;entryY=0.51;entryDx=0;entryDy=0;entryPerimeter=0;" edge="1" parent="a_xUBQwBy6rDpvlgd22E-41" target="iOlVBHZvp6bPq2AkOOY4-1">
          <mxGeometry width="50" height="50" relative="1" as="geometry">
            <mxPoint x="461" y="244" as="sourcePoint" />
            <mxPoint x="750" y="210" as="targetPoint" />
          </mxGeometry>
        </mxCell>
        <mxCell id="iOlVBHZvp6bPq2AkOOY4-92" value="Player Two" style="text;html=1;align=left;verticalAlign=middle;whiteSpace=wrap;rounded=0;fontStyle=0" vertex="1" parent="a_xUBQwBy6rDpvlgd22E-41">
          <mxGeometry x="480" y="300" width="147.3" height="20" as="geometry" />
        </mxCell>
        <mxCell id="iOlVBHZvp6bPq2AkOOY4-93" value="Player Three" style="text;html=1;align=left;verticalAlign=middle;whiteSpace=wrap;rounded=0;fontStyle=0;fontColor=#666666;" vertex="1" parent="a_xUBQwBy6rDpvlgd22E-41">
          <mxGeometry x="480" y="320" width="147.3" height="20" as="geometry" />
        </mxCell>
        <mxCell id="iOlVBHZvp6bPq2AkOOY4-94" value="Invite" style="rounded=1;whiteSpace=wrap;html=1;" vertex="1" parent="a_xUBQwBy6rDpvlgd22E-41">
          <mxGeometry x="467.3" y="350" width="162.7" height="20" as="geometry" />
        </mxCell>
        <mxCell id="iOlVBHZvp6bPq2AkOOY4-20" value="" style="endArrow=none;html=1;rounded=0;exitX=1;exitY=1;exitDx=0;exitDy=0;" edge="1" parent="1" source="iOlVBHZvp6bPq2AkOOY4-17">
          <mxGeometry width="50" height="50" relative="1" as="geometry">
            <mxPoint x="710" y="220" as="sourcePoint" />
            <mxPoint x="660" y="180" as="targetPoint" />
          </mxGeometry>
        </mxCell>
      </root>
    </mxGraphModel>
  </diagram>
</mxfile>
